<svg id="svg" version="1.1" xmlns="http://www.w3.org/2000/svg" style="display: block;" viewBox="0 0 400 206"><path d="M0 0 C132 0 264 0 400 0 C400 67.98 400 135.96 400 206 C268 206 136 206 0 206 C0 138.02 0 70.04 0 0 Z " transform="translate(0,0)" style="fill: #010101;"/><path d="M0 0 C1.31484375 0.00773438 1.31484375 0.00773438 2.65625 0.015625 C7.22102958 0.07062234 11.49700894 0.43822524 16 1.25 C16.176521 2.33007324 16.35304199 3.41014648 16.53491211 4.52294922 C17.18951111 8.52284098 17.84837603 12.52202018 18.50854492 16.52099609 C18.79389347 18.25322583 19.07807839 19.98564766 19.36108398 21.71826172 C19.76762394 24.20591604 20.17831764 26.69285381 20.58984375 29.1796875 C20.71592514 29.95682098 20.84200653 30.73395447 20.97190857 31.53463745 C21.58977445 35.51107616 21.58977445 35.51107616 23 39.25 C23.31403875 41.11659192 23.58392518 42.99069367 23.83203125 44.8671875 C24.06672119 46.59666626 24.06672119 46.59666626 24.30615234 48.36108398 C24.47324707 49.60317627 24.6403418 50.84526855 24.8125 52.125 C25.95315492 60.36392669 27.13568598 68.55231971 28.875 76.6875 C31.2994783 88.0365665 33.02409877 99.5045721 34.80615234 110.96850586 C36.03040587 118.76756402 37.44556231 126.41927675 39.30151367 134.09838867 C40.57079488 139.82546001 41.32500982 145.6295713 42.125 151.4375 C42.45786301 153.82725317 42.79364421 156.21660231 43.1328125 158.60546875 C43.34768311 160.16237427 43.34768311 160.16237427 43.56689453 161.75073242 C43.87457324 164.23908348 43.87457324 164.23908348 45 166.25 C45.16796875 168.2734375 45.16796875 168.2734375 45.1875 170.625 C45.20167969 171.39585937 45.21585937 172.16671875 45.23046875 172.9609375 C44.87097983 176.53145454 43.70808742 178.61043717 41.0625 181 C36.5028795 182.86106959 31.86793984 182.85359318 27 182.25 C24.20409686 179.45409686 24.10958462 176.38742264 23.5 172.625 C23.30881592 171.50049438 23.30881592 171.50049438 23.11376953 170.35327148 C22.01129233 163.70851767 21.18135487 157.04013325 20.4296875 150.34765625 C20.1818911 147.34704927 20.1818911 147.34704927 19 145.25 C19 141.95 19 138.65 19 135.25 C2.17 135.25 -14.66 135.25 -32 135.25 C-32.33 138.22 -32.66 141.19 -33 144.25 C-33.63563405 148.96758725 -34.33210384 153.67499487 -35.046875 158.38110352 C-35.26686371 159.84360284 -35.48198125 161.30684264 -35.69238281 162.77075195 C-35.99985698 164.90760224 -36.32247144 167.04168335 -36.6484375 169.17578125 C-36.83583496 170.43817627 -37.02323242 171.70057129 -37.21630859 173.0012207 C-37.98893481 176.20412945 -38.69866187 177.92276725 -41 180.25 C-41.66 180.25 -42.32 180.25 -43 180.25 C-43 180.91 -43 181.57 -43 182.25 C-45.12438339 182.33078641 -47.2496323 182.38909141 -49.375 182.4375 C-50.55835938 182.47230469 -51.74171875 182.50710937 -52.9609375 182.54296875 C-54.46527344 182.39794922 -54.46527344 182.39794922 -56 182.25 C-58.2069939 178.93950916 -58.20793095 178.51050467 -57.75 174.7890625 C-57.63954346 173.86319336 -57.52908691 172.93732422 -57.4152832 171.98339844 C-57.27823975 170.95762695 -57.14119629 169.93185547 -57 168.875 C-56.85973389 167.77704102 -56.71946777 166.67908203 -56.57495117 165.54785156 C-53.0911689 139.16313755 -48.31656109 112.94907347 -43.59701538 86.76373291 C-43.42707062 85.82076355 -43.25712585 84.87779419 -43.08203125 83.90625 C-42.91136139 82.95957458 -42.74069153 82.01289917 -42.56484985 81.03753662 C-41.48361751 75.01564226 -40.43676337 68.98873091 -39.41455078 62.95654297 C-38.72145702 58.86914912 -38.01873991 54.78343211 -37.31561279 50.69775391 C-36.98523048 48.76203341 -36.65943913 46.82552262 -36.33868408 44.88818359 C-31.24995538 14.18746654 -31.24995538 14.18746654 -19 5 C-18.01 4.4225 -17.02 3.845 -16 3.25 C-15.154375 2.7240625 -14.30875 2.198125 -13.4375 1.65625 C-8.84882494 -0.22093525 -4.90221008 -0.11534612 0 0 Z " transform="translate(67,9.75)" style="fill: #FBFBFB;"/><path d="M0 0 C0.81137784 2.51164633 1.41191422 4.87073918 1.9375 7.4453125 C2.1037085 8.20738007 2.26991699 8.96944763 2.44116211 9.75460815 C2.97320182 12.20891933 3.48667335 14.66671433 4 17.125 C4.34516793 18.72812045 4.69150959 20.33098867 5.0390625 21.93359375 C6.87380728 30.44007837 8.61442376 38.96399174 10.2890625 47.50341797 C10.79604043 49.99687191 11.32748559 52.47466692 11.88891602 54.95556641 C13.42367207 61.8111707 14.77398046 68.70540635 16.15234375 75.59375 C16.45615505 77.10958382 16.75999368 78.62541216 17.06385803 80.14123535 C17.69909724 83.31146867 18.33355117 86.48185801 18.9675293 89.65234375 C19.7700648 93.6651223 20.57523469 97.67736708 21.38111019 101.68947601 C22.00966289 104.82097726 22.63641108 107.95283783 23.26269722 111.08479309 C23.55823257 112.56130917 23.85437366 114.03770418 24.15119743 115.51396179 C25.73320067 123.38600592 27.26643444 131.26645163 28.70532227 139.16601562 C28.83576652 139.8622982 28.96621077 140.55858078 29.10060787 141.27596283 C29.8085538 145.2336693 30.12952616 148.98158702 30 153 C30.99 153 31.98 153 33 153 C33.14695313 152.18402344 33.29390625 151.36804688 33.4453125 150.52734375 C34.74499196 143.66294476 36.2537938 136.92942961 38.10375977 130.19091797 C42.09491574 115.61858716 44.63884525 100.91244127 47 86 C47.30188495 84.14970721 47.60395012 82.2994438 47.90625 80.44921875 C49.39592152 71.13021562 50.47137985 61.81872626 51.30151367 52.41845703 C51.72171925 47.70354846 52.24966826 43.05148621 53 38.375 C53.7417744 33.6732915 54.1469321 29.03466793 54.4296875 24.28125 C54.50445312 23.06646973 54.57921875 21.85168945 54.65625 20.60009766 C54.80027132 18.14755609 54.92829901 15.69401457 55.0390625 13.23974609 C55.10609375 12.10617676 55.173125 10.97260742 55.2421875 9.8046875 C55.31735596 8.27303955 55.31735596 8.27303955 55.39404297 6.71044922 C56.1455587 3.34891511 57.31007893 2.09890223 60 0 C62.875 -0.42578125 62.875 -0.42578125 66 -0.3125 C67.03125 -0.28800781 68.0625 -0.26351563 69.125 -0.23828125 C71.56220109 -0.03628496 73.6516004 0.37415907 76 1 C76.6265116 14.20710146 74.72458625 27.11689915 73.0625 40.1875 C72.64271802 43.54648165 72.22535922 46.90575185 71.80943298 50.26521301 C71.55174026 52.34033516 71.29148029 54.41514088 71.02809143 56.48954773 C70.29932443 62.28706787 69.70760213 68.07408274 69.26683044 73.90107727 C69 76 69 76 68 77 C67.68474826 79.07469725 67.37606817 81.15060564 67.10058594 83.23095703 C65.73556286 93.52566453 63.55589488 103.33167008 60.73876953 113.31396484 C59.92027772 116.28985608 59.15867394 119.27725186 58.40234375 122.26953125 C46.35947016 169.44905482 46.35947016 169.44905482 33 180 C29.44921875 180.48828125 29.44921875 180.48828125 25.6875 180.3125 C24.43324219 180.26738281 23.17898437 180.22226563 21.88671875 180.17578125 C20.93410156 180.11777344 19.98148438 180.05976563 19 180 C18.69255859 178.60974609 18.69255859 178.60974609 18.37890625 177.19140625 C18.10949219 175.99386719 17.84007812 174.79632813 17.5625 173.5625 C17.29566406 172.36753906 17.02882812 171.17257813 16.75390625 169.94140625 C16.29933252 167.1295314 16.29933252 167.1295314 15 166 C14.56642009 163.71044855 14.18012106 161.42542472 13.8125 159.125 C12.42568495 150.85921495 10.68695515 142.68215218 8.875 134.5 C8.60921143 133.28844238 8.34342285 132.07688477 8.06958008 130.82861328 C7.81716553 129.6992334 7.56475098 128.56985352 7.3046875 127.40625 C7.07765137 126.38853516 6.85061523 125.37082031 6.61669922 124.32226562 C6.22267137 122.05536105 6.22267137 122.05536105 5 121 C4.52280588 118.52284578 4.09267018 116.05163752 3.6875 113.5625 C2.57601045 107.00372301 1.31082415 100.49564485 -0.125 94 C-0.29555908 93.2169751 -0.46611816 92.4339502 -0.6418457 91.62719727 C-1.20002047 88.01493122 -1.20002047 88.01493122 -3 85 C-3.31923492 82.9427083 -3.51161352 80.88386479 -3.71875 78.8125 C-3.81998043 76.9832467 -3.81998043 76.9832467 -5 76 C-5.69040317 72.36787898 -6.29922305 68.73050425 -6.89453125 65.08203125 C-7.22514772 61.22235475 -7.22514772 61.22235475 -9 58 C-9.52045292 55.33528103 -9.9944074 52.67769809 -10.4375 50 C-11.32697004 39.7692568 -11.32697004 39.7692568 -15 31 C-15.54032222 28.21029286 -16.03746602 25.42768113 -16.5 22.625 C-16.75830542 21.07516748 -17.01864409 19.52567214 -17.28125 17.9765625 C-17.39533203 17.28643066 -17.50941406 16.59629883 -17.62695312 15.88525391 C-18.00101807 13.78684306 -18.00101807 13.78684306 -19 11 C-19.67343977 3.92888244 -19.67343977 3.92888244 -17.1875 0.5 C-11.77654951 -2.04632964 -5.64472345 -1.88157448 0 0 Z " transform="translate(207,12)" style="fill: #FBFBFB;"/><path d="M0 0 C1.56814453 0.03673828 1.56814453 0.03673828 3.16796875 0.07421875 C5.8125 0.3125 5.8125 0.3125 7.8125 1.3125 C7.8125 54.1125 7.8125 106.9125 7.8125 161.3125 C22.0025 161.3125 36.1925 161.3125 50.8125 161.3125 C52.03654372 167.43271858 52.03654372 167.43271858 52.1875 170.3125 C52.23648438 170.951875 52.28546875 171.59125 52.3359375 172.25 C51.69191405 174.78764463 50.60483019 176.42971305 48.71929932 178.23861694 C44.2654779 180.74694769 38.59125781 179.90365497 33.63671875 179.80078125 C32.35642288 179.79370651 31.07612701 179.78663177 29.7570343 179.77934265 C26.36504688 179.76031714 22.97414226 179.71125838 19.58258057 179.65582275 C16.11705166 179.60453199 12.65134653 179.58180789 9.18554688 179.55664062 C2.39406313 179.5015341 -4.39662029 179.41787646 -11.1875 179.3125 C-11.30422563 156.56447935 -11.39243539 133.81650797 -11.44656086 111.06824875 C-11.47235862 100.50617216 -11.5075392 89.94428149 -11.56469727 79.38232422 C-11.61448407 70.17808862 -11.64677957 60.97398764 -11.65794247 51.76962113 C-11.66446924 46.89448018 -11.67984155 42.0197244 -11.71615028 37.14470673 C-11.7500352 32.55805516 -11.76056821 27.97194818 -11.75303841 23.38518333 C-11.75441632 21.70009847 -11.76439368 20.01499579 -11.78352737 18.330019 C-11.80834982 16.03173803 -11.80244696 13.735522 -11.78877258 11.43719482 C-11.79338155 10.15037182 -11.79799051 8.86354881 -11.80273914 7.53773117 C-11.1875 4.3125 -11.1875 4.3125 -8.84010601 1.8938179 C-5.63537932 -0.01663984 -3.70317631 -0.13340635 0 0 Z " transform="translate(143.1875,10.6875)" style="fill: #F7F7F6;"/><path d="M0 0 C1.34868164 -0.0309375 1.34868164 -0.0309375 2.72460938 -0.0625 C9.73734044 -0.10306533 16.28056778 0.64571791 21.9921875 5.01171875 C22.76949219 5.96498047 22.76949219 5.96498047 23.5625 6.9375 C24.09617187 7.56011719 24.62984375 8.18273437 25.1796875 8.82421875 C29.05286046 15.05541152 30.13032824 20.69545618 30.02807617 27.86914062 C30.02873329 29.09984283 30.02873329 29.09984283 30.02940369 30.35540771 C30.02733101 33.03927276 30.00407277 35.7224955 29.98046875 38.40625 C29.97486737 40.27811339 29.97059983 42.14998121 29.96760559 44.02185059 C29.9561995 48.92753428 29.92676908 53.83294779 29.89349365 58.73852539 C29.86270111 63.75272976 29.84908069 68.76697816 29.83398438 73.78125 C29.80189507 83.6042848 29.75075035 93.42711985 29.6875 103.25 C29.0275 103.25 28.3675 103.25 27.6875 103.25 C27.6875 104.24 27.6875 105.23 27.6875 106.25 C22.7375 106.25 17.7875 106.25 12.6875 106.25 C12.67291748 103.83292725 12.65833496 101.41585449 12.64331055 98.92553711 C12.59290386 90.92670342 12.52629802 82.92806315 12.45178509 74.92941952 C12.40711655 70.08129994 12.36785265 65.23326372 12.34106445 60.38500977 C12.31499643 55.70346069 12.27456923 51.02223297 12.22431374 46.34088326 C12.20766868 44.55762298 12.19613972 42.77430714 12.18988609 40.99098015 C12.18021921 38.48705478 12.15212979 35.98394717 12.11987305 33.48022461 C12.12130814 32.74798172 12.12274323 32.01573883 12.1242218 31.26130676 C12.03182045 26.16765461 11.01681215 22.69311983 8.6875 18.25 C5.48279925 16.64764963 2.01601939 17.10716727 -1.5 17.125 C-2.6147168 17.11919922 -2.6147168 17.11919922 -3.75195312 17.11328125 C-4.48736328 17.11457031 -5.22277344 17.11585937 -5.98046875 17.1171875 C-6.64328857 17.11831543 -7.3061084 17.11944336 -7.98901367 17.12060547 C-11.12803677 17.29541709 -14.20330964 17.79409836 -17.3125 18.25 C-17.30805878 19.30822464 -17.30361755 20.36644928 -17.29904175 21.45674133 C-17.25853769 31.41862354 -17.22853582 41.38048909 -17.20887566 51.34243488 C-17.19842848 56.464246 -17.18425223 61.58599075 -17.16162109 66.70776367 C-17.13992604 71.64848167 -17.12793841 76.58913575 -17.12274551 81.52989769 C-17.11904375 83.41699416 -17.11181535 85.30408705 -17.10103989 87.19115639 C-17.08656931 89.82974494 -17.08452019 92.46806775 -17.08544922 95.10668945 C-17.07466339 96.28272987 -17.07466339 96.28272987 -17.06365967 97.48252869 C-17.07818432 101.28272137 -17.15127371 103.00816056 -19.3125 106.25 C-23.9325 106.25 -28.5525 106.25 -33.3125 106.25 C-33.3125 73.25 -33.3125 40.25 -33.3125 6.25 C-21.07413398 2.65048058 -12.13679632 0.06871505 0 0 Z " transform="translate(362.3125,86.75)" style="fill: #0093FD;"/><path d="M0 0 C0.80542236 0.01748291 1.61084473 0.03496582 2.44067383 0.05297852 C3.35755981 0.08669556 3.35755981 0.08669556 4.29296875 0.12109375 C5.23706154 6.67800092 6.17872838 13.23525356 7.11889648 19.79272461 C7.43737997 22.01220133 7.75637052 24.23160536 8.07592773 26.45092773 C8.54161926 29.68583377 9.00568668 32.92096673 9.46875 36.15625 C9.62256134 37.22976715 9.77637268 38.3032843 9.93484497 39.40933228 C10.70100787 44.7996928 11.43862709 50.19181199 12.12255859 55.59326172 C12.25381638 56.62833359 12.38507416 57.66340546 12.52030945 58.72984314 C12.76415619 60.67243996 13.00374583 62.6155782 13.2381134 64.55934143 C13.90468975 69.88727804 14.90275008 74.93441276 16.29296875 80.12109375 C16.69595406 82.17830888 17.07377988 84.24072884 17.41796875 86.30859375 C17.66933594 87.78392578 17.66933594 87.78392578 17.92578125 89.2890625 C18.29296875 92.12109375 18.29296875 92.12109375 18.29296875 97.12109375 C3.77296875 97.12109375 -10.74703125 97.12109375 -25.70703125 97.12109375 C-24.64307776 84.35365189 -24.64307776 84.35365189 -23.2109375 78.45800781 C-22.18376389 73.69439066 -21.74899156 68.83434128 -21.20703125 63.99609375 C-20.94730406 61.75773239 -20.68689104 59.5194505 -20.42578125 57.28125 C-20.24015625 55.67854248 -20.24015625 55.67854248 -20.05078125 54.04345703 C-19.49950574 49.35683213 -18.88067099 44.6818073 -18.23046875 40.0078125 C-17.81020275 36.88718065 -17.42622494 33.76762132 -17.05859375 30.640625 C-16.81650502 28.67576908 -16.5743176 26.71092531 -16.33203125 24.74609375 C-16.17927734 23.37191284 -16.17927734 23.37191284 -16.0234375 21.9699707 C-15.10839115 14.74097305 -13.38091173 7.3407919 -8.01953125 2.05859375 C-4.64697464 0.0859663 -3.7064904 -0.10455068 0 0 Z " transform="translate(63.70703125,29.87890625)" style="fill: #070707;"/><path d="M0 0 C0.85722656 0.01289062 1.71445312 0.02578125 2.59765625 0.0390625 C4.9375 0.375 4.9375 0.375 7.9375 2.375 C8.23948537 5.48291156 8.34667929 8.39211923 8.32568359 11.50292969 C8.33094055 12.4494339 8.33619751 13.39593811 8.34161377 14.37112427 C8.35486185 17.51320707 8.34605582 20.65478666 8.3359375 23.796875 C8.33795753 25.97682798 8.34086836 28.1567803 8.34463501 30.33673096 C8.34906544 34.91335461 8.34260666 39.48980294 8.32861328 44.06640625 C8.31156156 49.92874571 8.32133272 55.79067194 8.33933067 61.65299606 C8.35018363 66.1586212 8.34671449 70.66414881 8.3389473 75.16977692 C8.33694737 77.33070169 8.33939726 79.49163535 8.34638596 81.65254974 C8.35402059 84.67843465 8.34236578 87.70365653 8.32568359 90.72949219 C8.33479263 92.06698013 8.33479263 92.06698013 8.34408569 93.43148804 C8.33562622 94.2614328 8.32716675 95.09137756 8.31845093 95.94647217 C8.31731985 96.66102947 8.31618877 97.37558678 8.31502342 98.11179733 C7.9375 100.375 7.9375 100.375 4.9375 106.375 C0.3175 106.375 -4.3025 106.375 -9.0625 106.375 C-9.15510563 93.14499467 -9.22621724 79.91506621 -9.26974869 66.68480301 C-9.29063969 60.5417055 -9.31898545 54.39882943 -9.36425781 48.25585938 C-9.40766083 42.32957528 -9.4316257 36.40350442 -9.44200897 30.47707367 C-9.44941025 28.21398307 -9.4638629 25.95090438 -9.48542023 23.68790436 C-9.51437985 20.52247224 -9.51845903 17.3579257 -9.51660156 14.19238281 C-9.53098267 13.25298859 -9.54536377 12.31359436 -9.56018066 11.34573364 C-9.51982029 5.00582821 -9.51982029 5.00582821 -7.18865967 1.79022217 C-4.59097258 0.0611402 -3.09977166 -0.10285818 0 0 Z " transform="translate(301.0625,86.625)" style="fill: #0092FB;"/><path d="M0 0 C2.9375 1.4375 2.9375 1.4375 5 4 C6.36181982 8.45763381 6.34748359 11.95754924 4.875 16.375 C2.7501439 19.34979854 1.38198107 20.61646229 -2 22 C-6.53818805 22.66010008 -8.43382354 22.34599673 -12.375 19.9375 C-15.53802995 16.39791886 -16.08135822 14.71877697 -16 10 C-14.83617886 6.12059622 -13.85497152 3.75726049 -10.8125 1.0625 C-7.06972252 -0.35143816 -3.94802127 -0.68591885 0 0 Z " transform="translate(306,48)" style="fill: #0092FC;"/><path d="M0 0 C19.14 0 38.28 0 58 0 C57.67 0.66 57.34 1.32 57 2 C48.95671642 3.87923 40.07819171 3.15556064 31.875 3.125 C31.1917868 3.12411377 30.50857361 3.12322754 29.80465698 3.12231445 C19.83914208 3.10711042 9.92880069 2.90115533 0 2 C0 1.34 0 0.68 0 0 Z " transform="translate(132,190)" style="fill: #3C3C3B;"/><path d="M0 0 C1.4540625 0.5259375 1.4540625 0.5259375 2.9375 1.0625 C7.41489226 2.37452273 11.46325355 1.76126811 16 1 C14.85546875 2.48828125 14.85546875 2.48828125 13 4 C10.30078125 4.29296875 10.30078125 4.29296875 7.3125 4.1875 C6.31863281 4.16042969 5.32476562 4.13335937 4.30078125 4.10546875 C3.54152344 4.07066406 2.78226562 4.03585938 2 4 C1.34 2.68 0.68 1.36 0 0 Z " transform="translate(92,188)" style="fill: #A4A4A3;"/><path d="M0 0 C0.66 0.33 1.32 0.66 2 1 C1.195625 1.61875 0.39125 2.2375 -0.4375 2.875 C-4.15135247 6.49443249 -3.89481263 11.07531881 -4 16 C-4.33 16 -4.66 16 -5 16 C-6.32765047 10.08592064 -5.8379176 7.1690642 -3 2 C-2.01 1.34 -1.02 0.68 0 0 Z " transform="translate(296,49)" style="fill: #0085F0;"/><path d="M0 0 C1.2065625 0.0309375 1.2065625 0.0309375 2.4375 0.0625 C1.4475 0.5575 1.4475 0.5575 0.4375 1.0625 C0.4375 1.7225 0.4375 2.3825 0.4375 3.0625 C-3.8525 3.0625 -8.1425 3.0625 -12.5625 3.0625 C-12.5625 2.4025 -12.5625 1.7425 -12.5625 1.0625 C-11.92441406 1.07410156 -11.28632813 1.08570313 -10.62890625 1.09765625 C-9.80261719 1.10667969 -8.97632813 1.11570313 -8.125 1.125 C-6.88943359 1.14240234 -6.88943359 1.14240234 -5.62890625 1.16015625 C-2.92880057 1.03255201 -2.87847186 0.07020663 0 0 Z " transform="translate(23.5625,188.9375)" style="fill: #9A9A99;"/></svg>