<?xml version="1.0" standalone="no"?>
<!DOCTYPE svg PUBLIC "-//W3C//DTD SVG 20010904//EN"
 "http://www.w3.org/TR/2001/REC-SVG-20010904/DTD/svg10.dtd">
<svg version="1.0" xmlns="http://www.w3.org/2000/svg"
 width="400.000000pt" height="206.000000pt" viewBox="0 0 400.000000 206.000000"
 preserveAspectRatio="xMidYMid meet">

<g transform="translate(0.000000,206.000000) scale(0.100000,-0.100000)"
fill="#000000" stroke="none">
<path d="M569 1945 c-138 -44 -202 -138 -244 -356 -77 -395 -239 -1393 -231
-1416 3 -7 16 -13 28 -13 19 0 20 -2 8 -10 -11 -7 2 -10 43 -10 36 0 56 4 52
10 -3 5 0 10 8 10 7 0 23 10 35 23 18 19 27 57 52 220 16 108 30 199 30 202 0
5 499 7 501 3 0 -2 17 -102 37 -223 35 -208 38 -220 60 -223 12 -2 20 -8 17
-13 -11 -16 72 -10 104 8 62 36 64 8 -48 661 -56 328 -123 714 -147 857 -25
143 -49 264 -53 268 -17 17 -203 18 -252 2z m134 -399 c24 -184 95 -645 113
-728 l6 -28 -222 0 -222 0 6 28 c12 63 48 305 81 550 19 144 43 280 51 302 23
57 66 90 117 90 l42 0 28 -214z"/>
<path d="M1365 1938 c-47 -25 -45 7 -45 -910 l0 -868 289 0 c277 0 289 1 315
21 22 17 26 28 26 72 0 29 -4 58 -9 66 -6 10 -58 14 -220 19 l-211 5 0 793 0
793 -37 10 c-48 14 -83 13 -108 -1z"/>
<path d="M1918 1935 c-15 -9 -31 -27 -34 -42 -5 -17 57 -314 180 -872 103
-465 189 -854 192 -863 4 -15 17 -18 73 -18 63 0 69 2 98 32 139 146 293 701
368 1323 22 189 43 419 39 427 -2 3 -26 11 -53 17 -53 11 -110 1 -131 -24 -7
-9 -20 -99 -31 -217 -23 -244 -59 -521 -99 -758 -46 -267 -113 -534 -133 -527
-6 2 -29 108 -53 235 -79 430 -257 1269 -272 1284 -18 18 -116 19 -144 3z"/>
<path d="M2958 1555 c-31 -17 -41 -41 -40 -98 1 -48 23 -74 69 -83 82 -15 140
58 113 142 -18 52 -84 70 -142 39z"/>
<path d="M2946 1164 c-14 -14 -16 -75 -16 -520 l0 -504 60 0 c48 0 61 4 69 19
7 12 12 203 13 515 3 405 1 497 -10 501 -29 11 -101 5 -116 -11z"/>
<path d="M3461 1165 c-35 -8 -86 -22 -112 -30 l-49 -17 0 -489 0 -489 64 0
c49 0 65 4 70 16 3 9 6 204 6 435 l0 419 28 12 c15 6 70 13 122 16 86 4 98 2
122 -17 15 -12 32 -39 38 -59 6 -22 10 -191 10 -429 l0 -393 61 0 c47 0 65 4
75 18 11 13 13 102 14 430 0 228 -4 412 -9 412 -5 0 -11 17 -14 38 -10 57 -58
109 -119 127 -64 19 -219 19 -307 0z"/>
</g>
</svg>
