<svg id="svg" version="1.1" xmlns="http://www.w3.org/2000/svg" style="display: block;" viewBox="0 0 600 600"><path d="M0 0 C198 0 396 0 600 0 C600 198 600 396 600 600 C402 600 204 600 0 600 C0 402 0 204 0 0 Z " transform="translate(0,0)" style="fill: rgb(254, 254, 254); --darkreader-inline-fill: #e7e5e2;" data-darkreader-inline-fill=""/><path d="M0 0 C1.40475586 0.00773438 1.40475586 0.00773438 2.83789062 0.015625 C6.8370197 0.06129671 10.44822216 0.14481322 14.3125 1.25 C19.21787228 27.01994388 19.21787228 27.01994388 20.875 38.6875 C21.941576 46.19096913 23.29889515 53.60041039 24.86743164 61.01538086 C26.03392421 66.58572385 26.93864518 72.17081392 27.78344727 77.79858398 C28.69315687 83.73331617 29.7249604 89.646782 30.75 95.5625 C30.96954346 96.83561035 31.18908691 98.1087207 31.4152832 99.42041016 C32.55526405 105.9999681 33.72929142 112.5694902 35 119.125 C36.20129807 125.38119836 37.05023462 131.62664512 37.8515625 137.9453125 C38.30995887 141.23178142 38.96947795 144.38655158 39.73828125 147.609375 C40.58249803 151.49162361 41.26357163 155.39754204 41.9375 159.3125 C42.072771 160.06893799 42.20804199 160.82537598 42.34741211 161.60473633 C43.18443593 166.55627389 43.64266946 171.22709404 43.3125 176.25 C40.875 179.1875 40.875 179.1875 38.3125 181.25 C37.9825 181.58 37.6525 181.91 37.3125 182.25 C35.45962498 182.32226502 33.60416122 182.3338122 31.75 182.3125 C30.73808594 182.30347656 29.72617188 182.29445313 28.68359375 182.28515625 C27.50990234 182.26775391 27.50990234 182.26775391 26.3125 182.25 C26.3125 181.59 26.3125 180.93 26.3125 180.25 C25.3225 179.92 24.3325 179.59 23.3125 179.25 C20.8514333 164.60002582 18.41344319 149.95660234 16.3125 135.25 C-0.1875 135.25 -16.6875 135.25 -33.6875 135.25 C-34.0175 138.55 -34.3475 141.85 -34.6875 145.25 C-35.28451206 150.21503664 -35.95444993 155.16941066 -36.625 160.125 C-36.79451172 161.42953125 -36.96402344 162.7340625 -37.13867188 164.078125 C-37.30818359 165.32851563 -37.47769531 166.57890625 -37.65234375 167.8671875 C-37.8030835 168.99753418 -37.95382324 170.12788086 -38.10913086 171.29248047 C-38.86775654 175.17175085 -40.04833547 177.48300256 -42.5625 180.5 C-47.33370724 183.17187605 -52.32543672 182.93114836 -57.6875 182.25 C-59.6875 180.25 -59.6875 180.25 -59.734375 177.9921875 C-59.63640625 177.04601562 -59.5384375 176.09984375 -59.4375 175.125 C-59.32792969 174.04992187 -59.21835938 172.97484375 -59.10546875 171.8671875 C-58.96753906 170.67351562 -58.82960938 169.47984375 -58.6875 168.25 C-58.53925781 166.95320312 -58.39101562 165.65640625 -58.23828125 164.3203125 C-57.40614322 157.31731952 -56.3959253 150.37530694 -55.22045898 143.421875 C-54.34357434 138.20314604 -53.5184979 132.97619771 -52.6875 127.75 C-49.29793468 106.43281187 -45.51821243 85.19003229 -41.70703125 63.94482422 C-41.06447386 60.36130214 -40.42595328 56.7771196 -39.79296875 53.19189453 C-39.13830657 49.48454424 -38.47382358 45.77910766 -37.80065918 42.07507324 C-37.44893132 40.12585067 -37.10759018 38.17476272 -36.76660156 36.22363281 C-34.48493764 23.79822674 -30.90256936 12.96192991 -20.6875 4.875 C-13.33022091 0.88980716 -8.35079204 -0.18621975 0 0 Z " transform="translate(168.6875,206.75)" style="fill: rgb(33, 33, 31); --darkreader-inline-fill: #d4d0ca;" data-darkreader-inline-fill=""/><path d="M0 0 C3.26816651 1.48479201 4.70916402 2.25726121 6.0390625 5.65356445 C6.23242188 6.712771 6.42578125 7.77197754 6.625 8.86328125 C6.85364746 10.04768799 7.08229492 11.23209473 7.31787109 12.45239258 C7.54297363 13.72622803 7.76807617 15.00006348 8 16.3125 C8.25226915 17.64719409 8.50701739 18.98142184 8.76416016 20.31518555 C9.15248362 22.33037464 9.53942796 24.34569394 9.91860962 26.36262512 C10.9265676 31.71765551 12.11226646 37.01304631 13.375 42.3125 C16.24297652 54.5815296 18.62911147 66.9519676 21.05810547 79.3137207 C21.38346277 80.96441982 21.70914351 82.61505521 22.03515625 84.265625 C22.19469788 85.07444626 22.3542395 85.88326752 22.51861572 86.71659851 C23.79253335 93.10927531 25.19000575 99.4705608 26.69020081 105.81402588 C27.69960515 110.1946859 28.34401062 114.50373785 28.74745178 118.98223877 C28.98223746 121.27610172 28.98223746 121.27610172 30 124.5 C30.99293657 127.97527801 31.3790672 131.16338655 31.71875 134.7421875 C32.0724309 137.5814592 32.7787201 140.25222508 33.53125 143.0078125 C34.03589229 145.15254224 34.28165256 147.24622748 34.5 149.4375 C34.7475 151.2009375 34.7475 151.2009375 35 153 C35.66 153.33 36.32 153.66 37 154 C37.11859375 153.00484375 37.2371875 152.0096875 37.359375 150.984375 C37.83217128 147.68141355 38.64306246 144.55839095 39.61108398 141.36181641 C43.31756722 129.11073502 45.48177766 116.60295126 47.65240479 104.00616455 C48.01569608 101.90940924 48.38491248 99.81376203 48.75537109 97.71826172 C52.10274268 78.75060555 54.97608199 59.8735508 56.70629883 40.68017578 C56.91256182 38.79791879 57.18644539 36.92244215 57.50927734 35.05664062 C58.01529745 31.90471441 58.23699335 28.83601014 58.39453125 25.6484375 C58.46349609 24.46765625 58.53246094 23.286875 58.60351562 22.0703125 C58.74324328 19.59961413 58.87078017 17.12819719 58.98632812 14.65625 C59.09557617 12.88894531 59.09557617 12.88894531 59.20703125 11.0859375 C59.2635083 10.0139209 59.31998535 8.9419043 59.37817383 7.83740234 C60.1305298 4.40439054 61.28416712 3.16757213 64 1 C66.11328125 0.3203125 66.11328125 0.3203125 68.3125 0.125 C69.38951172 0.00511719 69.38951172 0.00511719 70.48828125 -0.1171875 C73.84590084 0.0394666 76.8054499 0.99610971 80 2 C80.52021442 20.55431425 78.23119687 38.88002131 75.42529297 57.18945312 C74.97726994 60.15021149 74.55205933 63.11371557 74.12890625 66.078125 C69.07388877 100.92508077 62.30705326 136.04483928 46.875 167.9375 C46.57480957 168.56970459 46.27461914 169.20190918 45.96533203 169.85327148 C43.73968236 174.25027214 41.13304365 178.23230435 37 181 C33.3515625 181.5859375 33.3515625 181.5859375 29.625 181.375 C27.75714844 181.29378906 27.75714844 181.29378906 25.8515625 181.2109375 C24.91054688 181.14132812 23.96953125 181.07171875 23 181 C21.02293306 173.18452807 19.11950667 165.35649577 17.3125 157.5 C17.05903809 156.39962402 16.80557617 155.29924805 16.54443359 154.16552734 C13.47519304 140.78570065 10.51195331 127.38227345 7.54672241 113.97909546 C6.38014726 108.70854694 5.20593714 103.43974788 4.02734375 98.171875 C-0.0284437 80.0295272 -3.98446999 61.86783802 -7.85522461 43.68505859 C-8.03270737 42.85245514 -8.21019012 42.01985168 -8.39305115 41.16201782 C-8.74283949 39.52009072 -9.0917811 37.87798298 -9.43983459 36.23568726 C-10.30962406 32.15001824 -11.20722718 28.07338442 -12.15429688 24.00488281 C-12.34066711 23.196409 -12.52703735 22.38793518 -12.71905518 21.55496216 C-13.07084102 20.03623333 -13.42871838 18.51889596 -13.79412842 17.00338745 C-14.81289615 12.58918041 -15.325203 8.52679763 -15 4 C-11.20612669 -0.9320353 -5.77660455 -1.00187985 0 0 Z " transform="translate(303,208)" style="fill: rgb(33, 33, 31); --darkreader-inline-fill: #d4d0ca;" data-darkreader-inline-fill=""/><path d="M0 0 C1.25490234 0.01933594 1.25490234 0.01933594 2.53515625 0.0390625 C4.9375 0.375 4.9375 0.375 8.9375 2.375 C8.9375 54.845 8.9375 107.315 8.9375 161.375 C23.1275 161.375 37.3175 161.375 51.9375 161.375 C53.27773146 164.05546291 53.21740945 166.25830499 53.3125 169.25 C53.36148438 170.29929687 53.41046875 171.34859375 53.4609375 172.4296875 C52.9375 175.375 52.9375 175.375 50.77302551 177.53070068 C47.51126331 179.65223539 45.89509944 179.86264793 42.0456543 179.82910156 C40.88482834 179.82879944 39.72400238 179.82849731 38.52799988 179.82818604 C37.28512711 179.80754089 36.04225433 179.78689575 34.76171875 179.765625 C33.48142288 179.75996521 32.20112701 179.75430542 30.8820343 179.74847412 C27.49022787 179.73325452 24.09911452 179.69400634 20.70758057 179.6496582 C17.24199803 179.60862496 13.7763027 179.59044605 10.31054688 179.5703125 C3.51923164 179.52622837 -3.27157136 179.45930178 -10.0625 179.375 C-10.17922563 156.62697935 -10.26743539 133.87900797 -10.32156086 111.13074875 C-10.34735862 100.56867216 -10.3825392 90.00678149 -10.43969727 79.44482422 C-10.48948407 70.24058862 -10.52177957 61.03648764 -10.53294247 51.83212113 C-10.53946924 46.95698018 -10.55484155 42.0822244 -10.59115028 37.20720673 C-10.6250352 32.62055516 -10.63556821 28.03444818 -10.62803841 23.44768333 C-10.62941632 21.76259847 -10.63939368 20.07749579 -10.65852737 18.392519 C-10.68334982 16.09423803 -10.67744696 13.798022 -10.66377258 11.49969482 C-10.66838155 10.21287182 -10.67299051 8.92604881 -10.67773914 7.60023117 C-10.0625 4.375 -10.0625 4.375 -7.68336773 1.95851517 C-4.8073609 0.22084623 -3.32179092 -0.11295116 0 0 Z " transform="translate(242.0625,207.625)" style="fill: rgb(34, 34, 32); --darkreader-inline-fill: #d3cfca;" data-darkreader-inline-fill=""/><path d="M0 0 C1.16660156 -0.01998047 2.33320313 -0.03996094 3.53515625 -0.06054688 C12.05306389 -0.0557236 17.65937338 1.01008369 24 7.0625 C31.28123157 17.06431962 30.7834984 27.53645921 30.640625 39.3515625 C30.63315257 41.17572404 30.62746438 42.99989368 30.62347412 44.82406616 C30.60829654 49.59501822 30.56908388 54.36547309 30.5246582 59.13623047 C30.48353434 64.01653318 30.46542676 68.89691723 30.4453125 73.77734375 C30.40258097 83.33094605 30.33442659 92.88418147 30.25 102.4375 C29.26 102.4375 28.27 102.4375 27.25 102.4375 C27.25 103.0975 27.25 103.7575 27.25 104.4375 C22.63 104.4375 18.01 104.4375 13.25 104.4375 C13.24453156 102.87228607 13.24453156 102.87228607 13.23895264 101.27545166 C13.2020263 91.44612635 13.14427962 81.61711502 13.06609726 71.78802872 C13.02657229 66.73464907 12.99440848 61.68144499 12.97900391 56.62792969 C12.96387034 51.75181996 12.92948371 46.87619274 12.88169098 42.00029755 C12.86684305 40.13920025 12.85895704 38.27803408 12.85811615 36.41687775 C12.85575496 33.81157365 12.82874504 31.20761223 12.79589844 28.60253906 C12.8009288 27.83145813 12.80595917 27.0603772 12.81114197 26.26593018 C12.74227498 22.74017978 12.54045664 20.80991484 10.34088135 17.98968506 C6.49167837 15.13219372 3.90832971 15.3029904 -0.875 15.3125 C-2.15632813 15.30992187 -3.43765625 15.30734375 -4.7578125 15.3046875 C-8.83290784 15.44025819 -12.71061189 15.90792523 -16.75 16.4375 C-16.74555878 17.49572464 -16.74111755 18.55394928 -16.73654175 19.64424133 C-16.69603769 29.60612354 -16.66603582 39.56798909 -16.64637566 49.52993488 C-16.63592848 54.651746 -16.62175223 59.77349075 -16.59912109 64.89526367 C-16.57742604 69.83598167 -16.56543841 74.77663575 -16.56024551 79.71739769 C-16.55654375 81.60449416 -16.54931535 83.49158705 -16.53853989 85.37865639 C-16.52406931 88.01724494 -16.52202019 90.65556775 -16.52294922 93.29418945 C-16.51216339 94.47022987 -16.51216339 94.47022987 -16.50115967 95.67002869 C-16.51568432 99.47022137 -16.58877371 101.19566056 -18.75 104.4375 C-23.37 104.4375 -27.99 104.4375 -32.75 104.4375 C-32.75 72.0975 -32.75 39.7575 -32.75 6.4375 C-21.66790723 1.68803167 -12.02562065 -0.07406597 0 0 Z " transform="translate(461.75,284.5625)" style="fill: rgb(17, 101, 169); --darkreader-inline-fill: #6bb7f0;" data-darkreader-inline-fill=""/><path d="M0 0 C1.22251465 0.01353516 1.22251465 0.01353516 2.46972656 0.02734375 C3.09331055 0.03894531 3.71689453 0.05054688 4.359375 0.0625 C4.42406982 0.68777588 4.48876465 1.31305176 4.55541992 1.95727539 C6.05495572 16.20737054 7.95504011 30.33980131 10.30029297 44.47509766 C13.19739323 61.97254316 15.7492368 79.51994326 18.359375 97.0625 C3.839375 97.0625 -10.680625 97.0625 -25.640625 97.0625 C-21.68713694 66.79786726 -21.68713694 66.79786726 -19.64526367 55.05810547 C-18.85709736 50.48684891 -18.20570585 45.91651935 -17.640625 41.3125 C-17.40279297 39.38664062 -17.40279297 39.38664062 -17.16015625 37.421875 C-16.87439711 35.0669977 -16.60237306 32.71172023 -16.34521484 30.35351562 C-16.02381061 27.42088715 -15.67689656 24.49198625 -15.328125 21.5625 C-15.18793945 20.18239746 -15.18793945 20.18239746 -15.04492188 18.77441406 C-14.15364426 11.53607959 -11.67691957 6.53255094 -6.890625 1.0625 C-4.35062573 -0.06638857 -2.75951719 -0.03956297 0 0 Z " transform="translate(163.640625,226.9375)" style="fill: rgb(252, 252, 252); --darkreader-inline-fill: #e6e4e1;" data-darkreader-inline-fill=""/><path d="M0 0 C1.77503906 0.03480469 1.77503906 0.03480469 3.5859375 0.0703125 C5.36871094 0.09738281 5.36871094 0.09738281 7.1875 0.125 C8.10273438 0.14820313 9.01796875 0.17140625 9.9609375 0.1953125 C10.03039432 13.16457592 10.08372689 26.13379522 10.11637402 39.10320663 C10.1320416 45.12518627 10.15330004 51.14703882 10.18725586 57.16894531 C10.21980999 62.97851056 10.23778228 68.78795344 10.24556923 74.59760284 C10.25111981 76.8160215 10.26195849 79.03443332 10.27812767 81.25279999 C10.2998492 84.35585599 10.3029066 87.45840386 10.30151367 90.56152344 C10.3122995 91.48221619 10.32308533 92.40290894 10.334198 93.35150146 C10.31701743 96.87974884 10.25341784 99.52854151 8.82637024 102.78179932 C6.11819937 104.83388897 4.12332757 104.58939379 0.7734375 104.4453125 C-0.31324219 104.40921875 -1.39992188 104.373125 -2.51953125 104.3359375 C-3.35097656 104.28953125 -4.18242187 104.243125 -5.0390625 104.1953125 C-5.08532445 90.93072041 -5.12090038 77.66614738 -5.14268684 64.40149117 C-5.1531412 58.24272953 -5.16733047 52.08402293 -5.18994141 45.92529297 C-5.21161096 39.98606701 -5.22361867 34.04689411 -5.22881699 28.10763168 C-5.23252336 25.83733153 -5.23976055 23.56703441 -5.25052261 21.29675674 C-5.26495927 18.12632126 -5.26704373 14.95610739 -5.26611328 11.78564453 C-5.27330383 10.83905975 -5.28049438 9.89247498 -5.28790283 8.91720581 C-5.2851535 8.05621277 -5.28240417 7.19521973 -5.27957153 6.30813599 C-5.28141512 5.5577965 -5.28325871 4.80745701 -5.28515816 4.03437996 C-4.81832643 0.54575671 -3.28541505 0.21114493 0 0 Z " transform="translate(398.0390625,284.8046875)" style="fill: rgb(10, 96, 166); --darkreader-inline-fill: #6bbbf6;" data-darkreader-inline-fill=""/><path d="M0 0 C3.0625 1.375 3.0625 1.375 5 4 C5.93015017 8.92481294 5.75524815 12.72389106 3.1875 17.0625 C-0.2723519 20.12694025 -3.5184094 20.33473429 -8.0625 20.29296875 C-10 20 -10 20 -12.4375 18.125 C-15.28691516 14.24979538 -15.67886511 10.7249012 -15 6 C-10.99606782 -0.27282709 -7.05823333 -0.81534764 0 0 Z " transform="translate(406,246)" style="fill: rgb(15, 100, 168); --darkreader-inline-fill: #6bb8f2;" data-darkreader-inline-fill=""/></svg>
