<svg id="svg" version="1.1" xmlns="http://www.w3.org/2000/svg" style="display: block;" viewBox="0 0 400 206"><path d="M0 0 C132 0 264 0 400 0 C400 67.98 400 135.96 400 206 C268 206 136 206 0 206 C0 138.02 0 70.04 0 0 Z " transform="translate(0,0)" style="fill: #000000;"/><path d="M0 0 C2.29114695 2.29114695 2.40300828 3.13791293 2.93922424 6.24971008 C3.09725021 7.14349365 3.25527618 8.03727722 3.41809082 8.95814514 C3.58377563 9.94302414 3.74946045 10.92790314 3.92016602 11.94262695 C4.10107285 12.97944611 4.28197968 14.01626526 4.46836853 15.08450317 C5.0712203 18.55114811 5.66256057 22.01965653 6.25390625 25.48828125 C6.6772165 27.93689972 7.10121482 30.38539933 7.52586365 32.83378601 C8.53748744 38.67694582 9.54183592 44.52132754 10.54281324 50.36631793 C11.75337396 57.43237304 12.97547526 64.49642585 14.19726562 71.56054688 C16.1624252 82.92928221 18.11149459 94.30070708 20.05448341 105.6732502 C21.36116354 113.30847667 22.68672737 120.94015259 24.02740192 128.56948185 C24.89171602 133.49447891 25.74791094 138.42086863 26.60288811 143.34749413 C27.00700957 145.66408004 27.41486222 147.98001852 27.82666206 150.29525185 C28.39281643 153.48062079 28.94579155 156.66801936 29.49584961 159.85620117 C29.66470861 160.78655119 29.83356762 161.71690121 30.00754356 162.67544365 C31.93655764 174.05481859 31.93655764 174.05481859 28.6875 178.99609375 C24.60704501 182.48148238 21.58204774 183.67013332 16.2109375 183.69921875 C12.7872 182.61644664 11.2875719 180.74192634 9 178 C8.16358295 175.17524378 7.60814927 172.72868393 7.19921875 169.84765625 C7.07311722 169.06990341 6.94701569 168.29215057 6.8170929 167.49082947 C6.42144074 165.01729414 6.05471216 162.54039848 5.6875 160.0625 C5.42298914 158.40141066 5.15672991 156.74059873 4.88867188 155.08007812 C4.63646531 153.48201555 4.38576377 151.88371458 4.13671875 150.28515625 C4.02116135 149.54435318 3.90560394 148.80355011 3.7865448 148.04029846 C3.17833261 143.92170855 3 140.20491084 3 136 C-13.17 136 -29.34 136 -46 136 C-47.56167028 147.24742949 -47.56167028 147.24742949 -49.11083984 158.49658203 C-49.31042353 159.91705533 -49.51042836 161.33746954 -49.7109375 162.7578125 C-49.80866455 163.48282959 -49.9063916 164.20784668 -50.00708008 164.95483398 C-51.44886305 175.06107881 -51.44886305 175.06107881 -54.5 178.875 C-56 180 -56 180 -58 180 C-58 180.66 -58 181.32 -58 182 C-60.43954658 183.21977329 -62.15305849 183.20153813 -64.875 183.25 C-66.17050781 183.28867187 -66.17050781 183.28867187 -67.4921875 183.328125 C-70.56695121 182.92581947 -71.78744646 182.15488627 -74 180 C-74.23614502 177.7328186 -74.23614502 177.7328186 -73.86425781 175.08056641 C-73.73587524 174.09695129 -73.60749268 173.11333618 -73.47521973 172.09991455 C-73.31839722 171.07694275 -73.16157471 170.05397095 -73 169 C-72.86670288 168.03777527 -72.73340576 167.07555054 -72.59606934 166.08416748 C-72.15033874 162.95468923 -71.66561678 159.83319269 -71.171875 156.7109375 C-70.98660248 155.52552872 -70.80132996 154.34011993 -70.61044312 153.11878967 C-69.9956369 149.20333436 -69.37377168 145.28903369 -68.75 141.375 C-68.53318104 140.01018297 -68.31636384 138.64536567 -68.09954834 137.2805481 C-64.46336514 114.43245682 -60.58120146 91.62906582 -56.55055237 68.84741974 C-56.12773022 66.45296134 -55.70753074 64.05805565 -55.28796387 61.6630249 C-54.62094776 57.85951886 -53.94570723 54.05755766 -53.26420975 50.25662041 C-53.01573217 48.86534009 -52.76954091 47.47364889 -52.5259819 46.0814991 C-49.63877225 29.61444652 -47.01131018 14.70661735 -33.3125 3.875 C-23.15180612 -1.87633616 -11.31347884 -2.51410641 0 0 Z " transform="translate(82,10)" style="fill: #1D1D1B;"/><path d="M0 0 C2.28395512 1.04332187 3.22966049 1.68530783 4.40917969 3.92456055 C5.17430803 6.44942951 5.71755695 8.95408103 6.21679688 11.54492188 C6.54049255 13.0310775 6.54049255 13.0310775 6.87072754 14.54725647 C7.58892373 17.88463518 8.26225346 21.22946781 8.93554688 24.57617188 C9.43462684 26.94504933 9.93598707 29.31344735 10.43945312 31.68139648 C11.99430263 39.05452397 13.49158696 46.4385215 14.98083496 53.82509613 C15.61195845 56.94950686 16.24753088 60.07300673 16.88307953 63.19651985 C22.90397725 92.78873154 28.86016368 122.39634665 34.43554688 152.07617188 C46.39910316 111.00947734 51.73494574 68.8169445 55.73657227 26.33618164 C55.83541718 25.30987137 55.93426208 24.2835611 56.03610229 23.22615051 C56.22117634 21.30008372 56.40092216 19.37349426 56.57424927 17.44633484 C57.79368823 4.83633038 57.79368823 4.83633038 61.22460938 1.15820312 C63.92663296 -0.16416531 65.80928574 -0.29097294 68.81054688 -0.23632812 C69.72578125 -0.23246094 70.64101563 -0.22859375 71.58398438 -0.22460938 C74.7539168 0.10975336 77.43294565 1.03209381 80.43554688 2.07617188 C69.02679525 131.99665941 69.02679525 131.99665941 41.43554688 176.07617188 C41.01402344 176.77613281 40.5925 177.47609375 40.15820312 178.19726562 C38.64703211 180.18613204 37.738507 181.0739165 35.43554688 182.07617188 C30.72463465 182.54568048 26.15142381 182.42501757 21.43554688 182.07617188 C18.19193407 173.27772087 16.33277006 164.17974031 14.33007812 155.04101562 C13.92962332 153.23101348 13.52872332 151.42110979 13.12741089 149.61129761 C12.05141382 144.75317856 10.98123525 139.89379644 9.91256332 135.03406143 C8.12381299 126.9037543 6.32718051 118.77518127 4.53238106 110.64620781 C3.84716943 107.54167957 3.16270111 104.43698801 2.47825623 101.33229065 C-0.27406518 88.85684841 -3.06405395 76.39055371 -5.89266777 63.93219566 C-7.02542178 58.93868934 -8.15207271 53.94380143 -9.27907658 48.94899464 C-10.16068088 45.04507044 -11.04683648 41.14228707 -11.94296265 37.2416687 C-12.77639254 33.61391289 -13.59864817 29.98380626 -14.41244125 26.35159683 C-14.8495371 24.41524274 -15.29906745 22.48170842 -15.74905396 20.54830933 C-18.15207951 9.74304109 -18.15207951 9.74304109 -16.56445312 4.07617188 C-11.81349292 -1.7475858 -7.12095952 -1.84559663 0 0 Z " transform="translate(204.564453125,10.923828125)" style="fill: #1D1D1B;"/><path d="M0 0 C0 52.47 0 104.94 0 159 C7.59 159 15.18 159 23 159 C29.67534029 159.29181815 36.33339119 159.59109519 43 160 C45.45300379 164.32709869 45.69014493 168.11656941 45 173 C42.48375957 177.62988238 38.90536598 179.47581786 34 181 C31.17860462 181.25542489 28.59561047 181.37611911 25.78515625 181.328125 C25.011754 181.32625183 24.23835175 181.32437866 23.44151306 181.32244873 C21.80853954 181.31575718 20.17558126 181.30190069 18.54272461 181.28125 C16.10058871 181.2504799 13.65910642 181.24030354 11.21679688 181.234375 C3.42886481 181.19690125 -4.35110716 181.01552294 -12.12890625 180.609375 C-13.43029541 180.54202148 -14.73168457 180.47466797 -16.07250977 180.40527344 C-17.03858154 180.2715332 -18.00465332 180.13779297 -19 180 C-20.46321298 177.07357403 -20.13276917 174.49453123 -20.14044189 171.22538757 C-20.14489858 170.1684342 -20.14489858 170.1684342 -20.1494453 169.09012824 C-20.15815143 166.71721881 -20.15964215 164.34435971 -20.16113281 161.97143555 C-20.16575965 160.27484021 -20.17078413 158.57824591 -20.17617798 156.88165283 C-20.18931734 152.26381462 -20.19574998 147.64599096 -20.20018864 143.02813697 C-20.20311702 140.14457296 -20.20722139 137.26101295 -20.21169281 134.37745094 C-20.22537208 125.35980296 -20.23503651 116.3421641 -20.2388947 107.32450646 C-20.24337599 96.90697596 -20.26092539 86.48957664 -20.2898953 76.07208604 C-20.31149737 68.02532229 -20.3215982 59.97859549 -20.32293582 51.93180305 C-20.32398495 47.12328894 -20.32991563 42.31489806 -20.34775543 37.50641441 C-20.36421054 32.98301107 -20.36640411 28.45982393 -20.35761642 23.93640137 C-20.35684466 22.27594741 -20.36120709 20.61548196 -20.37107468 18.95505714 C-20.38375569 16.68830064 -20.37793887 14.42231428 -20.36749268 12.15556335 C-20.36895924 10.88700847 -20.3704258 9.61845358 -20.3719368 8.31145763 C-19.96973927 4.73058026 -19.147853 2.86041248 -17 0 C-12.34841702 -3.10105532 -4.91227271 -2.45613636 0 0 Z " transform="translate(151,12)" style="fill: #1D1D1B;"/><path d="M0 0 C1.34868164 -0.0309375 1.34868164 -0.0309375 2.72460938 -0.0625 C9.73734044 -0.10306533 16.28056778 0.64571791 21.9921875 5.01171875 C22.76949219 5.96498047 22.76949219 5.96498047 23.5625 6.9375 C24.09617187 7.56011719 24.62984375 8.18273437 25.1796875 8.82421875 C29.05286046 15.05541152 30.13032824 20.69545618 30.02807617 27.86914062 C30.02873329 29.09984283 30.02873329 29.09984283 30.02940369 30.35540771 C30.02733101 33.03927276 30.00407277 35.7224955 29.98046875 38.40625 C29.97486737 40.27811339 29.97059983 42.14998121 29.96760559 44.02185059 C29.9561995 48.92753428 29.92676908 53.83294779 29.89349365 58.73852539 C29.86270111 63.75272976 29.84908069 68.76697816 29.83398438 73.78125 C29.80189507 83.6042848 29.75075035 93.42711985 29.6875 103.25 C29.0275 103.25 28.3675 103.25 27.6875 103.25 C27.6875 104.24 27.6875 105.23 27.6875 106.25 C22.7375 106.25 17.7875 106.25 12.6875 106.25 C12.67291748 103.83292725 12.65833496 101.41585449 12.64331055 98.92553711 C12.59290386 90.92670342 12.52629802 82.92806315 12.45178509 74.92941952 C12.40711655 70.08129994 12.36785265 65.23326372 12.34106445 60.38500977 C12.31499643 55.70346069 12.27456923 51.02223297 12.22431374 46.34088326 C12.20766868 44.55762298 12.19613972 42.77430714 12.18988609 40.99098015 C12.18021921 38.48705478 12.15212979 35.98394717 12.11987305 33.48022461 C12.12130814 32.74798172 12.12274323 32.01573883 12.1242218 31.26130676 C12.03182045 26.16765461 11.01681215 22.69311983 8.6875 18.25 C5.48279925 16.64764963 2.01601939 17.10716727 -1.5 17.125 C-2.6147168 17.11919922 -2.6147168 17.11919922 -3.75195312 17.11328125 C-4.48736328 17.11457031 -5.22277344 17.11585937 -5.98046875 17.1171875 C-6.64328857 17.11831543 -7.3061084 17.11944336 -7.98901367 17.12060547 C-11.12803677 17.29541709 -14.20330964 17.79409836 -17.3125 18.25 C-17.30805878 19.30822464 -17.30361755 20.36644928 -17.29904175 21.45674133 C-17.25853769 31.41862354 -17.22853582 41.38048909 -17.20887566 51.34243488 C-17.19842848 56.464246 -17.18425223 61.58599075 -17.16162109 66.70776367 C-17.13992604 71.64848167 -17.12793841 76.58913575 -17.12274551 81.52989769 C-17.11904375 83.41699416 -17.11181535 85.30408705 -17.10103989 87.19115639 C-17.08656931 89.82974494 -17.08452019 92.46806775 -17.08544922 95.10668945 C-17.07466339 96.28272987 -17.07466339 96.28272987 -17.06365967 97.48252869 C-17.07818432 101.28272137 -17.15127371 103.00816056 -19.3125 106.25 C-23.9325 106.25 -28.5525 106.25 -33.3125 106.25 C-33.3125 73.25 -33.3125 40.25 -33.3125 6.25 C-21.07413398 2.65048058 -12.13679632 0.06871505 0 0 Z " transform="translate(362.3125,86.75)" style="fill: #045DA5;"/><path d="M0 0 C0.17539307 1.29470215 0.35078613 2.5894043 0.53149414 3.92333984 C3.95183831 29.09534183 7.53481576 54.21422237 11.86547852 79.24755859 C12.00921906 80.08339478 12.15295959 80.91923096 12.30105591 81.78039551 C12.56789128 83.32760376 12.83782177 84.87428295 13.11154175 86.42028809 C13.67770086 89.69323662 14 92.6626989 14 96 C0.14 96 -13.72 96 -28 96 C-25.69713233 76.42562481 -25.69713233 76.42562481 -24.37890625 67.2890625 C-24.23347885 66.2705722 -24.08805145 65.25208191 -23.93821716 64.20272827 C-23.63422089 62.07706455 -23.32921201 59.95154539 -23.02319336 57.82617188 C-22.56424032 54.63709275 -22.10902059 51.44749713 -21.65429688 48.2578125 C-20.92237239 43.13597521 -20.17665094 38.0162887 -19.42315674 32.89758301 C-19.01163767 30.07968943 -18.61263833 27.26021941 -18.21435547 24.44042969 C-17.96518379 22.7388347 -17.71538328 21.03733163 -17.46484375 19.3359375 C-17.30853233 18.19422592 -17.30853233 18.19422592 -17.14906311 17.02944946 C-16.27465905 11.23847718 -14.8610148 6.76557815 -10.5625 2.6875 C-6.73738761 0.16852355 -4.58994223 0 0 0 Z " transform="translate(67,30)" style="fill: #000000;"/><path d="M0 0 C0.85722656 0.01289062 1.71445312 0.02578125 2.59765625 0.0390625 C4.9375 0.375 4.9375 0.375 7.9375 2.375 C8.23948537 5.48291156 8.34667929 8.39211923 8.32568359 11.50292969 C8.33094055 12.4494339 8.33619751 13.39593811 8.34161377 14.37112427 C8.35486185 17.51320707 8.34605582 20.65478666 8.3359375 23.796875 C8.33795753 25.97682798 8.34086836 28.1567803 8.34463501 30.33673096 C8.34906544 34.91335461 8.34260666 39.48980294 8.32861328 44.06640625 C8.31156156 49.92874571 8.32133272 55.79067194 8.33933067 61.65299606 C8.35018363 66.1586212 8.34671449 70.66414881 8.3389473 75.16977692 C8.33694737 77.33070169 8.33939726 79.49163535 8.34638596 81.65254974 C8.35402059 84.67843465 8.34236578 87.70365653 8.32568359 90.72949219 C8.33479263 92.06698013 8.33479263 92.06698013 8.34408569 93.43148804 C8.33562622 94.2614328 8.32716675 95.09137756 8.31845093 95.94647217 C8.31731985 96.66102947 8.31618877 97.37558678 8.31502342 98.11179733 C7.9375 100.375 7.9375 100.375 4.9375 106.375 C0.3175 106.375 -4.3025 106.375 -9.0625 106.375 C-9.15510563 93.14499467 -9.22621724 79.91506621 -9.26974869 66.68480301 C-9.29063969 60.5417055 -9.31898545 54.39882943 -9.36425781 48.25585938 C-9.40766083 42.32957528 -9.4316257 36.40350442 -9.44200897 30.47707367 C-9.44941025 28.21398307 -9.4638629 25.95090438 -9.48542023 23.68790436 C-9.51437985 20.52247224 -9.51845903 17.3579257 -9.51660156 14.19238281 C-9.53098267 13.25298859 -9.54536377 12.31359436 -9.56018066 11.34573364 C-9.51982029 5.00582821 -9.51982029 5.00582821 -7.18865967 1.79022217 C-4.59097258 0.0611402 -3.09977166 -0.10285818 0 0 Z " transform="translate(301.0625,86.625)" style="fill: #045EA3;"/><path d="M0 0 C2.9375 1.4375 2.9375 1.4375 5 4 C6.36181982 8.45763381 6.34748359 11.95754924 4.875 16.375 C2.7501439 19.34979854 1.38198107 20.61646229 -2 22 C-6.53818805 22.66010008 -8.43382354 22.34599673 -12.375 19.9375 C-15.53802995 16.39791886 -16.08135822 14.71877697 -16 10 C-14.83617886 6.12059622 -13.85497152 3.75726049 -10.8125 1.0625 C-7.06972252 -0.35143816 -3.94802127 -0.68591885 0 0 Z " transform="translate(306,48)" style="fill: #045DA5;"/></svg>